<svg width="139" height="18" viewBox="0 0 139 18" fill="none" xmlns="http://www.w3.org/2000/svg">
<path d="M32.1898 6.53577H20.5369L20.1193 6.88411V17.6629H23.3251V13.6055L23.619 13.3028H32.1898C34.3572 13.3028 35.3544 12.6946 35.3544 11.1356V8.65725C35.3544 7.14109 34.3572 6.53577 32.1898 6.53577ZM32.1898 10.5189C32.1898 11.2556 31.731 11.3755 30.6899 11.3755H23.674L23.3388 11.0728V8.7886L23.6328 8.48593H30.7119C31.7118 8.48593 32.2118 8.61442 32.2118 9.34252V10.5103L32.1898 10.5189Z" fill="white"/>
<path d="M41.277 8.5716L44.068 12.8146L43.9004 13.2057H37.736L36.1537 15.2387H45.3179L45.9826 15.6299L47.4001 17.6629H51.1059L42.9856 6.40729" fill="white"/>
<path d="M78.0543 15.4986V12.4691L78.3894 12.1664H84.595V10.262H74.7661V17.6629H89.2595V15.7584H78.4307" fill="white"/>
<path d="M89.3858 6.53864H74.7661V8.61729H89.3858V6.53864Z" fill="white"/>
<path d="M58.4816 8.52877H70.2691C70.1015 6.96978 69.1428 6.53006 66.8106 6.53006H58.3552C55.6906 6.53006 54.8555 7.04972 54.8555 9.17121V15.0645C54.8555 17.1432 55.6796 17.7057 58.3552 17.7057H66.8023C69.1758 17.7057 70.0988 17.2289 70.1757 15.627H58.4733L58.1382 15.2815V8.7886" fill="white"/>
<path d="M12.2051 10.8644H3.66729L3.41731 10.5617V8.65723L3.66729 8.44023H15.2048L15.3697 8.05191C14.9961 7.01258 13.9549 6.49292 12.0732 6.49292H4.04089C1.37626 6.49292 0.543913 7.01258 0.543913 9.13407V10.3904C0.543913 12.4662 1.36802 13.0315 4.04089 13.0315H12.5814L12.8314 13.2914V15.2901L12.6226 15.5927H0.293933C0.293933 15.5927 0 15.7669 0 15.8098C0.208775 17.2831 1.16749 17.6714 3.45852 17.6714H12.2051C14.8697 17.6714 15.746 17.1517 15.746 15.0303V13.5055C15.746 11.4297 14.8697 10.8644 12.2051 10.8644Z" fill="white"/>
<path d="M98.591 6.49292H93.759L93.509 7.01258L98.841 11.0814C99.8409 10.4761 100.964 9.87074 102.137 9.26256" fill="white"/>
<path d="M102.923 14.1137L107.629 17.6629H112.461L112.67 17.186L105.673 11.8609C104.755 12.5976 103.797 13.3342 102.926 14.1137" fill="white"/>
<path d="M97.8824 17.6629H93.5091L93.1355 17.0575C96.0913 14.068 109.343 1.35341 138.118 0C138.118 0 114.002 0.856589 97.8824 17.6629" fill="#B2B0B2"/>
</svg>
